# xmcd
#
# Track frame offsets:
#	150
#	21655
#	34105
#	50091
#	77214
#	98893
#	116302
#	140633
#	159902
#	185675
#	206838
#	221855
#	242831
#	261125
#
# Disc length: 3549 seconds
#
# Revision: 0
# Processed by: cddbd v1.5.1PL0 Copyright (c) Steve Scherf et al.
# Submitted via: audiograbber 1.83.01
#
DISCID=d30ddb0e
DTITLE=Vários Artistas - A casa da sete mulheres
DYEAR=2003
DGENRE=Canção
TTITLE0=Gal Costa - Gal Costa - Merceditas
TTITLE1=Zizi Possi - Zizi Possi - Passione
TTITLE2=Rodrigo Faro - La Media Vuelta
TTITLE3=Milton Nascimento - Milton e M.Rita - Tristesse
TTITLE4=Sagrado coração da terra - Cavalo Baio
TTITLE5=Adriana Mezzadri - Sete Vidas
TTITLE6=Paula Santoro - Piel de Lava
TTITLE7=Flavio Venturini - Prenda Minha
TTITLE8=Jorge Vercilo - Fenix
TTITLE9=Agnaldo Rayol - Il Dio del Buoni
TTITLE10=Adriana Mezzadri - Te Tengo Miedo
TTITLE11=Leila Pinheiro - Uma Voz no Vento
TTITLE12=Marcus Viana - Vidas, Amores e Guerras
TTITLE13=Marcus Viana - A Saga dos Pampas
EXTD=
EXTT0=
EXTT1=
EXTT2=
EXTT3=
EXTT4=
EXTT5=
EXTT6=
EXTT7=
EXTT8=
EXTT9=
EXTT10=
EXTT11=
EXTT12=
EXTT13=
PLAYORDER=
